# File generated by ImageToStl.com - Free Image and 3D model conversion tools

mtllib exclamation_point.mtl

o obj1
v -0.11820517 0.72123934 0.69800373
v -0.18844422 0.40787779 0.9077343
v 0.39931445 0.5336174 0.78659171
v 0.17656211 -0.01673988 0.9980981
v -0.16062481 -0.40054197 0.92075621
v -0.38258806 -0.00028195 0.92391301
v -0.76456219 0.40063605 0.53759822
v -0.58087527 0.7113642 0.41625828
v -0.11110233 0.99707621 0.22211452
v 0.34229464 0.95099381 0.16706759
v 0.86237924 0.54941733 0.085977
v 0.76649107 0.40787779 0.52161686
v 0.70710356 -0.00028195 0.70707959
v 0.36084092 -0.50060697 0.80947857
v -0.11346996 -0.71521998 0.70273886
v -0.60968119 -0.50060697 0.64315414
v -0.86498822 -0.00028195 0.53345498
v -0.88590213 0.50070153 0.02363003
v -0.50787404 0.86936167 -0.25693157
v -0.14326239 0.7113642 -0.70539606
v 0.3016506 0.83644581 -0.51243594
v 0.82074877 0.51715947 -0.32144891
v 0.99851662 -0.00028195 0.19863562
v 0.78918059 -0.40054197 0.50070302
v 0.53209782 -0.83240138 0.28761829
v -0.01758179 -0.99698212 0.24776363
v -0.56943184 -0.87387592 0.04631954
v -0.60593243 -0.71521998 -0.37373358
v -0.91214307 -0.40054197 0.20396279
v -0.99994195 -0.00028195 -4.607E-05
v -0.78291119 0.38351965 -0.5284173
v -0.18134138 0.39405326 -0.91196983
v 0.52361399 0.39471125 -0.78352705
v 0.84639788 -0.00028195 -0.56550984
v 0.912099 -0.40054197 -0.204055
v 0.69250333 -0.71851185 -0.15611092
v 0.25548234 -0.87321745 -0.4994141
v -0.13990825 -0.71587845 -0.70302842
v -0.78922479 -0.40054197 -0.50059789
v -0.83065793 -0.01673988 -0.58089931
v -0.38258806 -0.00028195 -0.92380788
v 0.21878434 -0.01673988 -0.98970627
v 0.4963864 -0.4084417 -0.78984073
v -0.21212032 -0.38342557 -0.91354823
v -0.41612918 9.61056625 0.6228322
v -2.21E-05 9.78831401 -4.607E-05
v -0.73299408 9.61188319 0.11892616
v -0.50649291 9.62044187 -0.56077464
v 0.28626128 9.62044187 -0.69099303
v 0.72269037 9.61188319 -0.17071115
v 0.46166156 9.63887425 0.61119142
v 0.98865166 9.08061676 0.66051663
v 0.45061268 9.0766669 1.08786987
v -0.22593131 9.09180837 1.16679024
v -0.83263095 9.0766669 0.83276012
v -0.89043999 7.17411537 0.88169064
v -1.16409608 9.08061676 0.27597752
v -1.08793804 9.0766669 -0.45068086
v -0.66531994 9.09180837 -0.98497107
v -2.21E-05 9.0766669 -1.17753657
v 0.45061268 9.0766669 -1.08796201
v 1.01706289 9.07205904 -0.63101369
v 1.1776656 9.0766669 -4.607E-05
v 1.15635722 7.18662391 0.48412977
v 0.88151741 7.17411537 0.89056916
v 0.47428878 7.16424071 1.15949005
v -0.00475724 7.18662391 1.25360254
v -0.48538172 7.17411537 1.15534681
v -0.78646254 4.04181732 0.78659171
v -1.02756402 4.04181732 0.42572883
v -1.16015004 7.17411537 0.47367277
v -1.25307868 7.17411537 -0.00635968
v -1.15521757 7.16424071 -0.48441925
v -0.88313994 7.18662391 -0.88987221
v -0.47374102 7.17411537 -1.16017408
v 0.00550241 7.16424071 -1.25270811
v 0.48356184 7.1820151 -1.15642539
v 0.88921214 7.1820151 -0.88336126
v 1.15971136 7.1820151 -0.47573801
v 1.25342917 7.1820151 0.00429452
v 1.02771723 4.04181732 0.42572883
v 0.78661568 4.04181732 0.78659171
v 0.4257528 4.04181732 1.02769312
v -2.21E-05 4.04181732 1.1123352
v -0.42559966 4.04181732 1.02769312
v -0.70221514 2.91608615 0.50050567
v -0.85137449 2.92201119 -4.607E-05
v -1.1124033 4.04181732 -4.607E-05
v -1.02756402 4.04181732 -0.42562363
v -0.78646254 4.04181732 -0.78648665
v -0.42559966 4.04181732 -1.02758806
v -2.21E-05 4.04181732 -1.11223
v 0.4257528 4.04181732 -1.02758806
v 0.78661568 4.04181732 -0.78648665
v 1.02771723 4.04181732 -0.42562363
v 1.11235917 4.04181732 -4.607E-05
v 0.83081107 2.88317005 0.17495967
v 0.50052979 2.91608615 0.70214697
v -0.14562996 2.88185335 0.84183584
v -0.28018901 2.15704042 0.37265492
v -0.45144605 2.19785649 -0.08981791
v -0.73082379 2.90160315 -0.45068086
v -0.16871416 2.90028645 -0.84804439
v 0.4794186 2.88317005 -0.70066078
v 0.78661568 2.92201119 -0.32578949
v 0.39083062 2.15309056 0.26117994
v -2.21E-05 1.90029464 -4.607E-05
v -0.19988765 2.18600666 -0.42365068
v 0.31486985 2.18600666 -0.34690068
vn -0.05616 0.95432 0.29346
vn -0.15821 0.69054 0.70578
vn 0.28287 0.81088 0.51231
vn 0.19656 -0.00463 0.98048
vn -0.13841 -0.668 0.73118
vn -0.48669 0.02163 0.8733
vn -0.49968 0.76744 0.4017
vn -0.23386 0.95441 0.18551
vn -0.0323 0.99695 0.07106
vn 0.13724 0.98854 0.0628
vn 0.57228 0.81994 0.01376
vn 0.57378 0.71887 0.39242
vn 0.62801 -0.01389 0.77808
vn 0.26899 -0.81321 0.51608
vn -0.04266 -0.95873 0.2811
vn -0.37411 -0.81219 0.44765
vn -0.85383 -0.02461 0.51996
vn -0.60657 0.79491 0.01384
vn -0.19377 0.97389 -0.1183
vn -0.06413 0.95414 -0.29242
vn 0.11108 0.97201 -0.20703
vn 0.5788 0.79697 -0.17273
vn 0.98501 -0.05173 0.16456
vn 0.6228 -0.6758 0.39423
vn 0.21875 -0.96935 0.11184
vn -0.00847 -0.9967 0.08077
vn -0.22794 -0.9736 0.01189
vn -0.24923 -0.95408 -0.16616
vn -0.71075 -0.68967 0.13854
vn -0.99727 0.00422 -0.07366
vn -0.53233 0.76603 -0.3603
vn -0.13207 0.69033 -0.71134
vn 0.43753 0.59448 -0.67465
vn 0.8356 -0.02479 -0.54878
vn 0.76794 -0.6192 -0.16391
vn 0.29002 -0.95469 -0.06673
vn 0.10265 -0.97383 -0.2028
vn -0.06684 -0.95375 -0.29308
vn -0.53264 -0.78777 -0.30938
vn -0.80263 -0.03076 -0.59568
vn -0.47567 -0.00264 -0.87962
vn 0.19969 -0.02113 -0.97963
vn 0.42728 -0.63091 -0.6476
vn -0.15156 -0.67895 -0.71837
vn -0.12372 0.97361 0.19175
vn -0.00201 1 3E-05
vn -0.22039 0.97499 0.02874
vn -0.1547 0.97369 -0.16733
vn 0.08193 0.97348 -0.21358
vn 0.22061 0.97439 -0.04361
vn 0.14252 0.9722 0.18579
vn 0.67465 0.59449 0.43752
vn 0.29849 0.59701 0.74464
vn -0.14705 0.60016 0.78624
vn -0.56584 0.59971 0.56583
vn -0.70708 0.00835 0.70708
vn -0.78424 0.59578 0.17326
vn -0.74105 0.60311 -0.29513
vn -0.44132 0.59846 -0.66864
vn -0.02795 0.6069 -0.79429
vn 0.33097 0.59383 -0.73337
vn 0.68093 0.58747 -0.43728
vn 0.79386 0.60788 0.01665
vn 0.92612 -0.00806 0.37714
vn 0.69872 -0.00835 0.71535
vn 0.38112 0.01031 0.92447
vn 0.00593 -0.00796 0.99995
vn -0.39579 -0.00777 0.91831
vn -0.63918 -0.39079 0.66236
vn -0.85646 -0.38167 0.34756
vn -0.92103 -0.01555 0.38918
vn -0.99988 -0.00599 -0.01397
vn -0.92318 0.01034 -0.38422
vn -0.71258 -0.00832 -0.70154
vn -0.37101 -0.00767 -0.9286
vn -0.00986 -1E-05 -0.99995
vn 0.39702 0.00258 -0.91781
vn 0.7015 -0.00836 -0.71262
vn 0.92872 -0.01542 -0.37045
vn 0.99994 0.00795 0.00794
vn 0.84539 -0.39119 0.3637
vn 0.66187 -0.38697 0.64202
vn 0.3381 -0.39083 0.85612
vn 0.01559 -0.3923 0.91971
vn -0.36688 -0.39201 0.84364
vn -0.5364 -0.75223 0.38266
vn -0.65209 -0.75801 0.01395
vn -0.91781 -0.39702 0.00257
vn -0.85829 -0.37803 -0.34703
vn -0.63982 -0.39452 -0.65953
vn -0.37061 -0.3926 -0.84173
vn 0.01821 -0.3901 -0.92059
vn 0.33852 -0.39454 -0.85425
vn 0.65796 -0.38349 -0.6481
vn 0.84893 -0.39639 -0.34956
vn 0.92358 -0.38333 -0.0077
vn 0.63458 -0.76267 0.1251
vn 0.36057 -0.76336 0.53598
vn -0.09673 -0.76797 0.63314
vn -0.19149 -0.93809 0.28866
vn -0.34779 -0.93611 -0.05228
vn -0.55051 -0.75247 -0.36156
vn -0.12202 -0.75879 -0.6398
vn 0.35044 -0.75927 -0.54836
vn 0.60213 -0.76203 -0.23823
vn 0.27666 -0.94068 0.19644
vn 0.0039 -0.99999 4E-05
vn -0.13726 -0.93321 -0.33208
vn 0.23737 -0.93833 -0.25139
vt 0.6195 0.15348
vt 0.63718 0.12514
vt 0.62701 0.13338
vt 0.64396 0.09197
vt 0.63766 0.05855
vt 0.64033 0.09197
vt 0.60546 0.12514
vt 0.59529 0.15348
vt 0.57809 0.17479
vt 0.57252 0.17236
vt 0.56453 0.13556
vt 0.60449 0.12514
vt 0.62144 0.09197
vt 0.63064 0.05274
vt 0.6195 0.03046
vt 0.61417 0.05274
vt 0.60473 0.09197
vt 0.55993 0.13095
vt 0.53765 0.16195
vt 0.50084 0.15348
vt 0.51731 0.16026
vt 0.53087 0.13168
vt 0.57664 0.09197
vt 0.60231 0.05855
vt 0.58463 0.02368
vt 0.58003 0.00915
vt 0.56671 0.02174
vt 0.52845 0.03046
vt 0.57737 0.05855
vt 0.55993 0.09197
vt 0.51586 0.12514
vt 0.48268 0.12514
vt 0.49455 0.12514
vt 0.51271 0.09197
vt 0.54274 0.05855
vt 0.54661 0.03046
vt 0.52119 0.0215
vt 0.50084 0.03046
vt 0.5178 0.05855
vt 0.51101 0.09197
vt 0.47978 0.09197
vt 0.47663 0.09197
vt 0.49334 0.05855
vt 0.48317 0.05855
vt 0.62459 0.94824
vt 0.55993 1.00079
vt 0.57228 0.94824
vt 0.50423 0.94824
vt 0.49067 0.94824
vt 0.54201 0.94824
vt 0.61708 0.94824
vt 0.61587 0.8446
vt 0.65462 0.8446
vt 0.65873 0.8446
vt 0.63234 0.8446
vt 0.6367 0.71601
vt 0.58342 0.8446
vt 0.52094 0.8446
vt 0.47687 0.8446
vt 0.4575 0.8446
vt 0.46549 0.8446
vt 0.50714 0.8446
vt 0.55993 0.8446
vt 0.60158 0.71722
vt 0.66019 0.71529
vt 0.66842 0.71722
vt 0.66019 0.71601
vt 0.62846 0.47288
vt 0.59698 0.47288
vt 0.60158 0.71601
vt 0.55993 0.71601
vt 0.51852 0.71529
vt 0.48341 0.71722
vt 0.45992 0.71601
vt 0.45169 0.71529
vt 0.45992 0.71674
vt 0.48341 0.71674
vt 0.51852 0.71674
vt 0.55993 0.71674
vt 0.64929 0.47288
vt 0.65679 0.47288
vt 0.60231 0.35955
vt 0.55993 0.35955
vt 0.55993 0.47288
vt 0.52312 0.47288
vt 0.49164 0.47288
vt 0.47057 0.47288
vt 0.46331 0.47288
vt 0.57495 0.35955
vt 0.61926 0.35955
vt 0.63161 0.35955
vt 0.58899 0.28376
vt 0.55242 0.28376
vt 0.52191 0.35955
vt 0.48874 0.35955
vt 0.50012 0.35955
vt 0.5316 0.35955
vt 0.58003 0.28376
vt 0.55993 0.25712
vt 0.52579 0.28376
vt 0.53184 0.28376
usemtl mat0
f 1/1/1 2/2/2 3/3/3
f 3/3/3 2/2/2 4/4/4
f 5/5/5 4/4/4 6/6/6
f 4/4/4 2/2/2 6/6/6
f 6/6/6 2/2/2 7/7/7
f 7/7/7 2/2/2 8/8/8
f 2/2/2 1/1/1 8/8/8
f 8/8/8 1/1/1 9/9/9
f 9/9/9 1/1/1 10/10/10
f 1/1/1 3/3/3 10/10/10
f 10/10/10 3/3/3 11/11/11
f 11/11/11 3/3/3 12/12/12
f 12/12/12 3/3/3 13/13/13
f 3/3/3 4/4/4 13/13/13
f 13/13/13 4/4/4 14/14/14
f 4/4/4 5/5/5 14/14/14
f 14/14/14 5/5/5 15/15/15
f 15/15/15 5/5/5 16/16/16
f 5/5/5 6/6/6 16/16/16
f 16/16/16 6/6/6 17/17/17
f 6/6/6 7/7/7 17/17/17
f 17/17/17 7/7/7 18/18/18
f 7/7/7 8/8/8 18/18/18
f 18/18/18 8/8/8 19/19/19
f 8/8/8 9/9/9 19/19/19
f 20/20/20 19/19/19 21/21/21
f 19/19/19 9/9/9 21/21/21
f 9/9/9 10/10/10 21/21/21
f 21/21/21 10/10/10 22/22/22
f 10/10/10 11/11/11 22/22/22
f 22/22/22 11/11/11 23/23/23
f 11/11/11 12/12/12 23/23/23
f 12/12/12 13/13/13 23/23/23
f 23/23/23 13/13/13 24/24/24
f 13/13/13 14/14/14 24/24/24
f 24/24/24 14/14/14 25/25/25
f 25/25/25 14/14/14 26/26/26
f 14/14/14 15/15/15 26/26/26
f 15/15/15 16/16/16 26/26/26
f 26/26/26 16/16/16 27/27/27
f 28/28/28 27/27/27 29/29/29
f 27/27/27 16/16/16 29/29/29
f 16/16/16 17/17/17 29/29/29
f 29/29/29 17/17/17 30/30/30
f 17/17/17 18/18/18 30/30/30
f 30/30/30 18/18/18 31/31/31
f 18/18/18 19/19/19 31/31/31
f 19/19/19 20/20/20 31/31/31
f 31/31/31 20/20/20 32/32/32
f 32/32/32 20/20/20 33/33/33
f 20/20/20 21/21/21 33/33/33
f 21/21/21 22/22/22 33/33/33
f 33/33/33 22/22/22 34/34/34
f 22/22/22 23/23/23 34/34/34
f 34/34/34 23/23/23 35/35/35
f 23/23/23 24/24/24 35/35/35
f 24/24/24 25/25/25 35/35/35
f 35/35/35 25/25/25 36/36/36
f 36/36/36 25/25/25 37/37/37
f 25/25/25 26/26/26 37/37/37
f 26/26/26 27/27/27 37/37/37
f 37/37/37 27/27/27 38/38/38
f 27/27/27 28/28/28 38/38/38
f 38/38/38 28/28/28 39/39/39
f 28/28/28 29/29/29 39/39/39
f 29/29/29 30/30/30 39/39/39
f 39/39/39 30/30/30 40/40/40
f 30/30/30 31/31/31 40/40/40
f 40/40/40 31/31/31 41/41/41
f 31/31/31 32/32/32 41/41/41
f 41/41/41 32/32/32 42/42/42
f 32/32/32 33/33/33 42/42/42
f 33/33/33 34/34/34 42/42/42
f 42/42/42 34/34/34 43/43/43
f 34/34/34 35/35/35 43/43/43
f 35/35/35 36/36/36 43/43/43
f 36/36/36 37/37/37 43/43/43
f 37/37/37 38/38/38 43/43/43
f 43/43/43 38/38/38 44/44/44
f 38/38/38 39/39/39 44/44/44
f 39/39/39 40/40/40 44/44/44
f 40/40/40 41/41/41 44/44/44
f 41/41/41 42/42/42 44/44/44
f 45/45/45 46/46/46 47/47/47
f 47/47/47 46/46/46 48/48/48
f 48/48/48 46/46/46 49/49/49
f 49/49/49 46/46/46 50/50/50
f 50/50/50 46/46/46 51/51/51
f 46/46/46 45/45/45 51/51/51
f 52/52/52 51/51/51 53/53/53
f 53/53/53 51/51/51 54/54/54
f 51/51/51 45/45/45 54/54/54
f 54/54/54 45/45/45 55/55/55
f 56/56/56 55/55/55 57/57/57
f 55/55/55 45/45/45 57/57/57
f 45/45/45 47/47/47 57/57/57
f 57/57/57 47/47/47 58/58/58
f 47/47/47 48/48/48 58/58/58
f 58/58/58 48/48/48 59/59/59
f 59/59/59 48/48/48 60/60/60
f 48/48/48 49/49/49 60/60/60
f 60/60/60 49/49/49 61/61/61
f 61/61/61 49/49/49 62/62/62
f 49/49/49 50/50/50 62/62/62
f 62/62/62 50/50/50 63/63/63
f 50/50/50 51/51/51 63/63/63
f 51/51/51 52/52/52 63/63/63
f 63/63/63 52/52/52 64/64/64
f 64/64/64 52/52/52 65/56/65
f 52/52/52 53/53/53 65/56/65
f 65/56/65 53/53/53 66/65/66
f 66/65/66 53/53/53 67/66/67
f 53/53/53 54/54/54 67/66/67
f 67/66/67 54/54/54 68/67/68
f 54/54/54 55/55/55 68/67/68
f 55/55/55 56/56/56 68/67/68
f 68/67/68 56/56/56 69/68/69
f 69/68/69 56/56/56 70/69/70
f 70/69/70 56/56/56 71/70/71
f 56/56/56 57/57/57 71/70/71
f 71/70/71 57/57/57 72/71/72
f 57/57/57 58/58/58 72/71/72
f 72/71/72 58/58/58 73/72/73
f 73/72/73 58/58/58 74/73/74
f 58/58/58 59/59/59 74/73/74
f 74/73/74 59/59/59 75/74/75
f 59/59/59 60/60/60 75/74/75
f 75/74/75 60/60/60 76/75/76
f 76/75/76 60/60/60 77/76/77
f 60/60/60 61/61/61 77/76/77
f 77/76/77 61/61/61 78/77/78
f 61/61/61 62/62/62 78/77/78
f 78/77/78 62/62/62 79/78/79
f 79/78/79 62/62/62 80/79/80
f 62/62/62 63/63/63 80/79/80
f 63/63/63 64/64/64 80/79/80
f 80/79/80 64/64/64 81/69/81
f 81/69/81 64/64/64 82/68/82
f 64/64/64 65/56/65 82/68/82
f 82/68/82 65/56/65 83/80/83
f 65/56/65 66/65/66 83/80/83
f 83/80/83 66/65/66 84/81/84
f 66/65/66 67/66/67 84/81/84
f 84/81/84 67/66/67 85/80/85
f 67/66/67 68/67/68 85/80/85
f 68/67/68 69/68/69 85/80/85
f 85/80/85 69/68/69 86/82/86
f 69/68/69 70/69/70 86/82/86
f 86/82/86 70/69/70 87/83/87
f 87/83/87 70/69/70 88/84/88
f 70/69/70 71/70/71 88/84/88
f 71/70/71 72/71/72 88/84/88
f 88/84/88 72/71/72 89/85/89
f 72/71/72 73/72/73 89/85/89
f 89/85/89 73/72/73 90/86/90
f 73/72/73 74/73/74 90/86/90
f 90/86/90 74/73/74 91/87/91
f 74/73/74 75/74/75 91/87/91
f 91/87/91 75/74/75 92/88/92
f 75/74/75 76/75/76 92/88/92
f 92/88/92 76/75/76 93/87/93
f 76/75/76 77/76/77 93/87/93
f 93/87/93 77/76/77 94/86/94
f 77/76/77 78/77/78 94/86/94
f 94/86/94 78/77/78 95/85/95
f 78/77/78 79/78/79 95/85/95
f 95/85/95 79/78/79 96/84/96
f 79/78/79 80/79/80 96/84/96
f 80/79/80 81/69/81 96/84/96
f 96/84/96 81/69/81 97/89/97
f 97/89/97 81/69/81 98/90/98
f 81/69/81 82/68/82 98/90/98
f 82/68/82 83/80/83 98/90/98
f 98/90/98 83/80/83 99/91/99
f 83/80/83 84/81/84 99/91/99
f 84/81/84 85/80/85 99/91/99
f 85/80/85 86/82/86 99/91/99
f 99/91/99 86/82/86 100/92/100
f 86/82/86 87/83/87 100/92/100
f 100/92/100 87/83/87 101/93/101
f 101/93/101 87/83/87 102/94/102
f 87/83/87 88/84/88 102/94/102
f 88/84/88 89/85/89 102/94/102
f 89/85/89 90/86/90 102/94/102
f 102/94/102 90/86/90 103/95/103
f 90/86/90 91/87/91 103/95/103
f 91/87/91 92/88/92 103/95/103
f 92/88/92 93/87/93 103/95/103
f 103/95/103 93/87/93 104/96/104
f 93/87/93 94/86/94 104/96/104
f 104/96/104 94/86/94 105/97/105
f 94/86/94 95/85/95 105/97/105
f 95/85/95 96/84/96 105/97/105
f 96/84/96 97/89/97 105/97/105
f 105/97/105 97/89/97 106/98/106
f 97/89/97 98/90/98 106/98/106
f 98/90/98 99/91/99 106/98/106
f 99/91/99 100/92/100 106/98/106
f 106/98/106 100/92/100 107/99/107
f 100/92/100 101/93/101 107/99/107
f 107/99/107 101/93/101 108/100/108
f 101/93/101 102/94/102 108/100/108
f 102/94/102 103/95/103 108/100/108
f 108/100/108 103/95/103 109/101/109
f 103/95/103 104/96/104 109/101/109
f 104/96/104 105/97/105 109/101/109
f 105/97/105 106/98/106 109/101/109
f 106/98/106 107/99/107 109/101/109
f 108/100/108 109/101/109 107/99/107
f 43/43/43 44/44/44 42/42/42
# Vertices: 109, normals: 109, texture coordinates: 101, faces: 210

